<svg xmlns="http://www.w3.org/2000/svg" viewBox="0 0 512 512" width="512" height="512">
  <defs>
    <linearGradient id="grad" x1="0%" y1="0%" x2="100%" y2="100%">
      <stop offset="0%" style="stop-color:#10b981;stop-opacity:1" />
      <stop offset="100%" style="stop-color:#059669;stop-opacity:1" />
    </linearGradient>
  </defs>
  
  <!-- Background -->
  <rect width="512" height="512" rx="100" fill="url(#grad)"/>
  
  <!-- Camera icon -->
  <path d="M 160 140 L 200 100 L 312 100 L 352 140 L 420 140 C 440 140 456 156 456 176 L 456 380 C 456 400 440 416 420 416 L 92 416 C 72 416 56 400 56 380 L 56 176 C 56 156 72 140 92 140 Z" 
        fill="white" stroke="white" stroke-width="8"/>
  
  <!-- Camera lens -->
  <circle cx="256" cy="268" r="80" fill="none" stroke="white" stroke-width="12"/>
  <circle cx="256" cy="268" r="50" fill="white" opacity="0.3"/>
  
  <!-- Flash -->
  <circle cx="380" cy="180" r="16" fill="white"/>
  
  <!-- Nutrition symbols -->
  <text x="256" y="450" font-family="Arial, sans-serif" font-size="72" font-weight="bold" fill="white" text-anchor="middle">N</text>
</svg>
